<?xml version="1.0" encoding="UTF-8"?>
<svg id="Layer_1" xmlns="http://www.w3.org/2000/svg" version="1.1" viewBox="0 0 1000 527.54">
  <defs>
    <style>
      .st0 {
        fill: #384850;
      }

      .st1 {
        fill: #899398;
      }
    </style>
  </defs>
  <g>
    <path class="st0" d="M155.22,12.58C61.8,12.58,20.17,80.35,20.17,138.43v217.82h48.41v-94.87h168.45v94.87h50.83v-217.82c0-67.77-40.18-125.85-132.63-125.85ZM237.02,220.24H68.57v-81.8c0-58.57,43.56-82.77,86.65-82.77,50.34.48,81.8,32.43,81.8,82.77v81.8Z"/>
    <path class="st0" d="M547.77,235.73v-79.87h65.83v-41.14h-65.83V17.9h-48.4v217.82c0,69.7,56.63,121.01,125.85,121.01v-44.53c-45.99,0-77.45-30.5-77.45-76.48Z"/>
    <rect class="st0" x="656.2" y="114.23" width="48.4" height="242.02"/>
    <path class="st0" d="M386.59,114.23h-48.4v242.02h48.4v-.48h0v-121.01c0-42.11,31.95-70.19,77.45-70.19v-55.67c-30.18,0-56.66,7.8-77.45,22.38v-17.06Z"/>
    <polygon class="st0" points="813.52 315.11 972.28 149.57 972.28 114.23 757.85 114.23 757.85 155.37 906.94 155.37 748.17 320.92 748.17 356.25 974.71 356.25 974.71 315.11 813.52 315.11"/>
  </g>
  <rect class="st1" x="111.6" y="379.09" width="84.82" height="26.79"/>
  <rect class="st1" x="548.9" y="379.09" width="26.79" height="26.79"/>
  <rect class="st1" x="667.01" y="55.66" width="26.79" height="26.79"/>
  <g>
    <path class="st0" d="M241.31,462.52h20.39c14.14,0,20.23,8.36,20.23,19.92v24.76h-40.62v-44.68ZM274.2,499.93v-17.26c0-8.28-3.98-12.89-12.73-12.89h-12.34v30.15h25.08Z"/>
    <path class="st0" d="M292.32,462.52h7.81v23.82h-7.81v-23.82Z"/>
    <path class="st0" d="M324.59,469.86h-14.76v-7.34h15.39c12.58,0,19.92,6.56,19.92,19.68v17.73h5.7v7.27h-41.01v-7.27h27.58v-17.42c0-7.74-3.44-12.66-12.81-12.66Z"/>
    <path class="st0" d="M359.12,462.52h7.81v44.68h-7.81v-44.68Z"/>
    <path class="st0" d="M376.78,499.93h25.23l-27.26-37.42h9.45l13.67,18.82h1.88c6.25,0,8.44-3.83,8.44-9.14v-9.69h7.65v9.84c0,9.61-5.62,14.68-13.12,15.62l14.14,19.22h-40.07v-7.27Z"/>
    <path class="st0" d="M426.15,462.52h7.81v23.82h-7.81v-23.82Z"/>
    <path class="st0" d="M444.59,499.93h12.66l-12.81-37.42h7.89l12.58,37.03c9.06-1.33,12.97-6.41,12.97-16.95v-20.07h7.73v20c0,19.29-10.78,24.68-25.7,24.68h-15.31v-7.27Z"/>
    <path class="st0" d="M496.07,462.52h7.81v44.68h-7.81v-44.68Z"/>
    <path class="st0" d="M563.33,469.86h-9.3v25.94c0,8.2-5.63,12.34-11.87,12.34-4.37,0-6.56-1.33-7.5-1.72v-7.03c1.87.86,3.05,1.56,6.09,1.56s5.62-2.11,5.62-5.78v-25.23h-8.12v-7.42h25.47c13.36,0,20.86,6.41,20.86,20.62v24.06h-7.73v-23.9c0-8.36-3.67-13.44-13.51-13.44Z"/>
    <path class="st0" d="M594.98,462.52h7.81v44.68h-7.81v-44.68Z"/>
    <path class="st0" d="M614.66,462.52h7.58c10.94,0,14.61,6.41,14.61,16.33v28.36h-25.86v-7.34h18.12v-20.54c0-6.48-2.66-9.53-8.44-9.53h-6.01v-7.26Z"/>
    <path class="st0" d="M673.65,469.86h-9.3v25.94c0,8.2-5.63,12.34-11.87,12.34-4.37,0-6.56-1.33-7.5-1.72v-7.03c1.87.86,3.05,1.56,6.09,1.56s5.62-2.11,5.62-5.78v-25.23h-8.12v-7.42h25.47c13.36,0,20.86,6.41,20.86,20.62v24.06h-7.73v-23.9c0-8.36-3.67-13.44-13.51-13.44Z"/>
    <path class="st0" d="M726.54,506.5v-7.34c1.48.55,3.59,1.64,6.95,1.64,6.64,0,12.34-6.64,12.34-15.08v-2.03c0-8.28-5.08-14.84-12.97-14.84-6.33,0-11.72,4.76-13.67,14.37l-4.61,23.98h-7.81l4.77-24.37-8.28-20.31h8.28l4.3,10.23c3.52-7.65,11.09-11.33,17.26-11.33,12.89,0,20.47,10.08,20.47,22.26v2.03c0,11.8-8.05,22.42-19.29,22.42-4.45,0-6.56-1.17-7.73-1.64Z"/>
  </g>
  <g>
    <g>
      <path class="st1" d="M861.44,93.2c-14.74,0-31.43-2.42-47.56-4.76-29.54-4.29-60.1-8.72-72.11,3.29l-7.09-7.09c15.57-15.57,47.18-10.99,80.64-6.13,15.79,2.29,32.11,4.66,46.12,4.66v10.03Z"/>
      <path class="st1" d="M861.44,93.2v-10.03c14.01,0,30.34-2.37,46.12-4.66,33.46-4.86,65.07-9.44,80.64,6.13l-7.09,7.09c-12.02-12.02-42.57-7.58-72.11-3.29-16.14,2.34-32.82,4.76-47.56,4.76Z"/>
    </g>
    <g>
      <path class="st1" d="M868.13,91.6l-7.14-.64c-69.58-6.27-88.03-29.78-92.84-43.23-3.67-10.26-1.53-21.33,5.46-28.19,6.78-6.66,19.51-8.47,33.23-4.72,40.88,11.19,55.84,56.3,59.45,69.86l1.84,6.93ZM793.2,22.9c-5.95,0-10.35,1.6-12.57,3.78-3.2,3.14-5.91,9.65-3.05,17.67,3.1,8.67,16.78,29,76.92,35.87-9.52-29.02-27.98-49.62-50.32-55.73-4.06-1.11-7.75-1.58-10.99-1.58Z"/>
      <path class="st1" d="M854.75,91.6l1.84-6.93c3.61-13.56,18.57-58.67,59.45-69.86,13.71-3.75,26.44-1.95,33.22,4.72,6.99,6.86,9.13,17.93,5.46,28.19-4.81,13.45-23.26,36.96-92.84,43.23l-7.14.64ZM929.67,22.9c-3.24,0-6.93.47-10.98,1.58-22.34,6.11-40.8,26.71-50.32,55.73,60.14-6.86,73.82-27.19,76.92-35.87,2.86-8.02.15-14.53-3.05-17.67-2.22-2.18-6.62-3.78-12.57-3.78Z"/>
    </g>
  </g>
</svg>
